<mxfile host="app.diagrams.net" modified="2023-12-21T14:46:38.944Z" agent="Mozilla/5.0 (Windows NT 10.0; Win64; x64) AppleWebKit/537.36 (KHTML, like Gecko) Chrome/120.0.0.0 Safari/537.36" version="22.1.11" etag="TkkhT-par9WxcPNAFR_H" type="github">
  <diagram name="Page-1" id="157MY7tqHtxdynqmj1PK">
    <mxGraphModel>
      <root>
        <mxCell id="0" />
        <mxCell id="1" parent="0" />
      </root>
    </mxGraphModel>
  </diagram>
</mxfile>
